<?xml version="1.0" standalone="no"?>
<!DOCTYPE svg PUBLIC "-//W3C//DTD SVG 20010904//EN"
 "http://www.w3.org/TR/2001/REC-SVG-20010904/DTD/svg10.dtd">
<svg version="1.0" xmlns="http://www.w3.org/2000/svg"
 width="128.000000pt" height="128.000000pt" viewBox="0 0 128.000000 128.000000"
 preserveAspectRatio="xMidYMid meet">

<g transform="translate(0.000000,128.000000) scale(0.100000,-0.100000)"
fill="#000000" stroke="none">
<path d="M593 1216 c-174 -33 -331 -153 -411 -315 -23 -46 -42 -90 -42 -99 0
-8 -14 4 -30 26 -24 33 -37 42 -60 42 -29 0 -50 -22 -50 -53 0 -8 31 -63 70
-121 58 -89 74 -106 95 -106 38 0 235 135 235 161 0 64 -47 76 -116 29 -54
-38 -56 -27 -9 67 41 82 125 167 203 207 192 97 402 65 553 -84 187 -184 187
-486 0 -670 -151 -149 -361 -181 -554 -84 -28 15 -85 60 -125 100 -40 41 -80
74 -88 74 -18 0 -54 -36 -54 -53 0 -47 132 -172 234 -222 313 -155 681 -3 803
333 67 185 23 422 -109 575 -129 151 -351 229 -545 193z"/>
<path d="M656 944 c-13 -13 -16 -43 -16 -171 l0 -156 92 -93 c101 -104 133
-117 163 -70 21 32 15 43 -74 131 l-71 69 0 131 c0 102 -3 135 -16 153 -18 26
-56 29 -78 6z"/>
</g>
</svg>
