<?xml version="1.0" standalone="no"?>
<!DOCTYPE svg PUBLIC "-//W3C//DTD SVG 20010904//EN"
 "http://www.w3.org/TR/2001/REC-SVG-20010904/DTD/svg10.dtd">
<svg version="1.0" xmlns="http://www.w3.org/2000/svg"
 width="512.000000pt" height="512.000000pt" viewBox="0 0 512.000000 512.000000"
 preserveAspectRatio="xMidYMid meet">

<g transform="translate(0.000000,512.000000) scale(0.100000,-0.100000)"
fill="#000000" stroke="none">
<path d="M2228 4355 c-94 -30 -189 -122 -230 -223 l-23 -57 0 -1250 0 -1250
23 -57 c33 -81 108 -160 190 -200 l67 -33 300 0 300 0 65 31 c82 39 144 101
184 184 l31 65 3 1234 c3 1361 5 1303 -59 1403 -40 61 -90 105 -159 137 -55
26 -55 26 -350 28 -235 2 -304 -1 -342 -12z m576 -321 c14 -14 16 -137 16
-1206 0 -1095 -1 -1193 -17 -1210 -15 -16 -36 -18 -249 -18 -229 0 -233 0
-248 22 -14 20 -16 151 -16 1203 0 1052 2 1183 16 1203 15 22 19 22 249 22
199 0 236 -2 249 -16z"/>
<path d="M3625 3500 c-111 -36 -207 -133 -240 -243 -23 -76 -23 -1638 0 -1714
34 -113 130 -208 246 -244 61 -19 88 -20 340 -17 260 3 277 4 332 27 75 30
158 110 195 188 l27 58 0 845 0 845 -27 58 c-37 78 -120 158 -195 188 -55 23
-71 24 -338 26 -255 2 -285 1 -340 -17z m569 -316 c14 -14 16 -99 16 -784 0
-685 -2 -770 -16 -784 -23 -24 -465 -24 -488 0 -14 14 -16 99 -16 784 0 685 2
770 16 784 13 14 50 16 244 16 194 0 231 -2 244 -16z"/>
<path d="M860 2761 c-96 -30 -187 -107 -233 -196 l-32 -60 -3 -454 c-3 -503
-2 -515 61 -607 45 -66 119 -120 196 -144 56 -18 92 -20 321 -20 229 0 265 2
321 20 77 24 151 78 196 144 63 91 64 104 61 602 l-3 449 -27 57 c-37 79 -98
142 -177 181 l-66 32 -295 2 c-162 1 -306 -2 -320 -6z m558 -323 c9 -9 12
-114 12 -409 0 -348 -2 -400 -16 -413 -23 -24 -465 -24 -488 0 -14 13 -16 65
-16 413 0 295 3 400 12 409 17 17 479 17 496 0z"/>
<path d="M360 1048 c-66 -34 -93 -79 -88 -149 5 -65 32 -109 82 -133 31 -15
223 -16 2206 -16 1983 0 2175 1 2206 16 50 24 77 68 82 133 5 70 -22 115 -88
149 l-44 22 -2156 0 -2156 0 -44 -22z"/>
</g>
</svg>
