<?xml version="1.0" standalone="no"?>
<!DOCTYPE svg PUBLIC "-//W3C//DTD SVG 20010904//EN"
 "http://www.w3.org/TR/2001/REC-SVG-20010904/DTD/svg10.dtd">
<svg version="1.0" xmlns="http://www.w3.org/2000/svg"
 width="512.000000pt" height="512.000000pt" viewBox="0 0 512.000000 512.000000"
 preserveAspectRatio="xMidYMid meet">

<g transform="translate(0.000000,512.000000) scale(0.100000,-0.100000)"
fill="#000000" stroke="none">
<path d="M225 5005 c-50 -18 -100 -71 -114 -122 -14 -50 -15 -774 -1 -825 13
-47 76 -103 132 -119 81 -22 171 19 208 96 19 38 20 62 20 328 l0 286 303 3
304 3 40 27 c110 72 103 237 -14 309 l-38 24 -400 2 c-327 2 -407 0 -440 -12z"/>
<path d="M4046 5005 c-151 -54 -166 -265 -24 -334 42 -20 59 -21 336 -21 l292
0 0 -292 c0 -275 1 -294 21 -335 37 -77 129 -118 210 -94 55 17 113 74 128
126 15 55 15 775 0 830 -14 51 -73 110 -124 124 -63 17 -789 14 -839 -4z"/>
<path d="M2379 4615 c-467 -76 -896 -316 -1172 -658 -142 -176 -269 -395 -300
-520 -37 -147 -11 -335 95 -674 l41 -131 -35 -41 c-43 -51 -68 -123 -75 -221
-7 -93 13 -172 63 -247 30 -47 124 -133 144 -133 4 0 14 -24 20 -53 23 -94
107 -330 164 -456 63 -142 143 -289 222 -408 130 -195 366 -379 703 -548 171
-86 221 -99 356 -99 134 0 208 23 393 120 315 165 522 329 648 514 166 242
329 603 395 873 8 34 20 53 38 64 114 71 171 203 158 366 -8 104 -31 167 -77
220 -38 43 -42 52 -51 136 -9 74 -8 100 5 153 41 165 40 252 -9 593 -54 374
-131 538 -290 617 -42 21 -96 65 -180 147 -66 65 -149 138 -185 163 -137 97
-311 170 -500 213 -103 23 -452 30 -571 10z m-469 -1353 c58 -16 202 -59 320
-95 514 -158 658 -170 1010 -82 154 39 202 47 285 48 117 1 155 -11 180 -57
14 -25 16 -45 11 -87 -23 -190 -25 -175 42 -311 65 -133 86 -202 102 -346 27
-240 -96 -667 -296 -1028 -146 -262 -291 -394 -640 -583 -173 -94 -228 -113
-330 -113 -92 0 -172 27 -324 109 -291 158 -462 299 -583 480 -74 113 -204
376 -256 520 -48 133 -105 344 -124 463 -17 104 -15 570 2 703 13 97 46 213
90 310 28 63 37 70 121 101 8 3 76 4 150 2 111 -3 154 -9 240 -34z"/>
<path d="M225 1186 c-48 -18 -101 -76 -115 -125 -14 -51 -13 -775 1 -826 14
-51 73 -110 124 -124 55 -15 775 -15 830 0 51 14 109 73 126 127 22 73 -21
167 -96 209 -39 22 -48 23 -332 23 l-293 0 0 292 c0 277 -1 294 -21 336 -39
80 -138 119 -224 88z"/>
<path d="M4775 1178 c-50 -18 -82 -46 -104 -91 -20 -41 -21 -60 -21 -335 l0
-292 -292 0 c-275 0 -294 -1 -335 -21 -51 -25 -78 -59 -94 -122 -23 -82 22
-170 106 -208 37 -17 73 -19 425 -19 251 0 399 4 425 11 51 14 110 73 124 124
14 53 15 775 1 827 -28 100 -139 160 -235 126z"/>
</g>
</svg>
